<mxfile host="app.diagrams.net" agent="Mozilla/5.0 (Windows NT 10.0; Win64; x64) AppleWebKit/537.36 (KHTML, like Gecko) Chrome/131.0.0.0 Safari/537.36" version="25.0.3">
  <diagram name="페이지-1" id="d0QHUHjjBnqB_T0leLFh">
    <mxGraphModel dx="1434" dy="746" grid="1" gridSize="10" guides="1" tooltips="1" connect="1" arrows="1" fold="1" page="1" pageScale="1" pageWidth="827" pageHeight="1169" math="0" shadow="0">
      <root>
        <mxCell id="0" />
        <mxCell id="1" parent="0" />
        <mxCell id="KUGhsdZ3GMTk7Ok1tHTb-1" value="고객" style="whiteSpace=wrap;html=1;align=center;" vertex="1" parent="1">
          <mxGeometry x="360" y="360" width="100" height="40" as="geometry" />
        </mxCell>
        <mxCell id="KUGhsdZ3GMTk7Ok1tHTb-2" value="고객명" style="ellipse;whiteSpace=wrap;html=1;align=center;" vertex="1" parent="1">
          <mxGeometry x="230" y="260" width="100" height="40" as="geometry" />
        </mxCell>
        <mxCell id="KUGhsdZ3GMTk7Ok1tHTb-3" value="" style="endArrow=none;html=1;rounded=0;exitX=0.5;exitY=1;exitDx=0;exitDy=0;entryX=0.5;entryY=0;entryDx=0;entryDy=0;" edge="1" parent="1" source="KUGhsdZ3GMTk7Ok1tHTb-2" target="KUGhsdZ3GMTk7Ok1tHTb-1">
          <mxGeometry relative="1" as="geometry">
            <mxPoint x="330" y="380" as="sourcePoint" />
            <mxPoint x="490" y="380" as="targetPoint" />
          </mxGeometry>
        </mxCell>
        <mxCell id="KUGhsdZ3GMTk7Ok1tHTb-6" value="전화번호" style="ellipse;whiteSpace=wrap;html=1;align=center;fontStyle=4;" vertex="1" parent="1">
          <mxGeometry x="364" y="250" width="100" height="40" as="geometry" />
        </mxCell>
        <mxCell id="KUGhsdZ3GMTk7Ok1tHTb-7" value="" style="endArrow=none;html=1;rounded=0;exitX=0.5;exitY=0;exitDx=0;exitDy=0;entryX=0.5;entryY=1;entryDx=0;entryDy=0;" edge="1" parent="1" source="KUGhsdZ3GMTk7Ok1tHTb-1" target="KUGhsdZ3GMTk7Ok1tHTb-6">
          <mxGeometry relative="1" as="geometry">
            <mxPoint x="340" y="330" as="sourcePoint" />
            <mxPoint x="420" y="370" as="targetPoint" />
          </mxGeometry>
        </mxCell>
        <mxCell id="KUGhsdZ3GMTk7Ok1tHTb-8" value="이메일" style="ellipse;whiteSpace=wrap;html=1;align=center;fontStyle=4;" vertex="1" parent="1">
          <mxGeometry x="490" y="270" width="100" height="40" as="geometry" />
        </mxCell>
        <mxCell id="KUGhsdZ3GMTk7Ok1tHTb-9" value="" style="endArrow=none;html=1;rounded=0;exitX=0.5;exitY=0;exitDx=0;exitDy=0;entryX=0;entryY=0.5;entryDx=0;entryDy=0;" edge="1" parent="1" source="KUGhsdZ3GMTk7Ok1tHTb-1" target="KUGhsdZ3GMTk7Ok1tHTb-8">
          <mxGeometry relative="1" as="geometry">
            <mxPoint x="420" y="370" as="sourcePoint" />
            <mxPoint x="470" y="330" as="targetPoint" />
          </mxGeometry>
        </mxCell>
        <mxCell id="KUGhsdZ3GMTk7Ok1tHTb-10" value="고객코드" style="ellipse;whiteSpace=wrap;html=1;align=center;fontStyle=4;" vertex="1" parent="1">
          <mxGeometry x="550" y="320" width="100" height="40" as="geometry" />
        </mxCell>
        <mxCell id="KUGhsdZ3GMTk7Ok1tHTb-11" value="" style="endArrow=none;html=1;rounded=0;exitX=1;exitY=0.5;exitDx=0;exitDy=0;entryX=0;entryY=0.5;entryDx=0;entryDy=0;" edge="1" parent="1" source="KUGhsdZ3GMTk7Ok1tHTb-1" target="KUGhsdZ3GMTk7Ok1tHTb-10">
          <mxGeometry relative="1" as="geometry">
            <mxPoint x="420" y="370" as="sourcePoint" />
            <mxPoint x="500" y="300" as="targetPoint" />
          </mxGeometry>
        </mxCell>
        <mxCell id="KUGhsdZ3GMTk7Ok1tHTb-12" value="주소" style="ellipse;whiteSpace=wrap;html=1;align=center;" vertex="1" parent="1">
          <mxGeometry x="200" y="360" width="100" height="40" as="geometry" />
        </mxCell>
        <mxCell id="KUGhsdZ3GMTk7Ok1tHTb-13" value="" style="endArrow=none;html=1;rounded=0;exitX=1;exitY=0.5;exitDx=0;exitDy=0;entryX=0;entryY=0.5;entryDx=0;entryDy=0;" edge="1" parent="1" source="KUGhsdZ3GMTk7Ok1tHTb-12" target="KUGhsdZ3GMTk7Ok1tHTb-1">
          <mxGeometry relative="1" as="geometry">
            <mxPoint x="290" y="310" as="sourcePoint" />
            <mxPoint x="420" y="370" as="targetPoint" />
          </mxGeometry>
        </mxCell>
        <mxCell id="KUGhsdZ3GMTk7Ok1tHTb-14" value="기본주소" style="ellipse;whiteSpace=wrap;html=1;align=center;" vertex="1" parent="1">
          <mxGeometry x="80" y="340" width="100" height="40" as="geometry" />
        </mxCell>
        <mxCell id="KUGhsdZ3GMTk7Ok1tHTb-15" value="상세주소" style="ellipse;whiteSpace=wrap;html=1;align=center;" vertex="1" parent="1">
          <mxGeometry x="80" y="400" width="100" height="40" as="geometry" />
        </mxCell>
        <mxCell id="KUGhsdZ3GMTk7Ok1tHTb-17" value="" style="endArrow=none;html=1;rounded=0;exitX=1;exitY=0.5;exitDx=0;exitDy=0;entryX=0;entryY=0.5;entryDx=0;entryDy=0;" edge="1" parent="1" source="KUGhsdZ3GMTk7Ok1tHTb-14" target="KUGhsdZ3GMTk7Ok1tHTb-12">
          <mxGeometry relative="1" as="geometry">
            <mxPoint x="290" y="310" as="sourcePoint" />
            <mxPoint x="420" y="370" as="targetPoint" />
          </mxGeometry>
        </mxCell>
        <mxCell id="KUGhsdZ3GMTk7Ok1tHTb-18" value="" style="endArrow=none;html=1;rounded=0;exitX=1;exitY=0.5;exitDx=0;exitDy=0;entryX=0;entryY=0.5;entryDx=0;entryDy=0;" edge="1" parent="1" source="KUGhsdZ3GMTk7Ok1tHTb-15" target="KUGhsdZ3GMTk7Ok1tHTb-12">
          <mxGeometry relative="1" as="geometry">
            <mxPoint x="190" y="370" as="sourcePoint" />
            <mxPoint x="210" y="390" as="targetPoint" />
          </mxGeometry>
        </mxCell>
        <mxCell id="KUGhsdZ3GMTk7Ok1tHTb-19" value="가입일" style="ellipse;whiteSpace=wrap;html=1;align=center;" vertex="1" parent="1">
          <mxGeometry x="220" y="420" width="100" height="40" as="geometry" />
        </mxCell>
        <mxCell id="KUGhsdZ3GMTk7Ok1tHTb-20" value="" style="endArrow=none;html=1;rounded=0;exitX=0.5;exitY=0;exitDx=0;exitDy=0;entryX=0;entryY=0.5;entryDx=0;entryDy=0;" edge="1" parent="1" source="KUGhsdZ3GMTk7Ok1tHTb-19" target="KUGhsdZ3GMTk7Ok1tHTb-1">
          <mxGeometry relative="1" as="geometry">
            <mxPoint x="310" y="390" as="sourcePoint" />
            <mxPoint x="370" y="390" as="targetPoint" />
          </mxGeometry>
        </mxCell>
        <mxCell id="KUGhsdZ3GMTk7Ok1tHTb-36" value="지역명" style="ellipse;whiteSpace=wrap;html=1;align=center;" vertex="1" parent="1">
          <mxGeometry x="120" y="605" width="100" height="40" as="geometry" />
        </mxCell>
        <mxCell id="KUGhsdZ3GMTk7Ok1tHTb-38" value="지역코드" style="ellipse;whiteSpace=wrap;html=1;align=center;fontStyle=4;" vertex="1" parent="1">
          <mxGeometry x="120" y="665" width="100" height="40" as="geometry" />
        </mxCell>
        <mxCell id="KUGhsdZ3GMTk7Ok1tHTb-39" value="" style="endArrow=none;html=1;rounded=0;entryX=1;entryY=0.5;entryDx=0;entryDy=0;" edge="1" parent="1" target="KUGhsdZ3GMTk7Ok1tHTb-38">
          <mxGeometry relative="1" as="geometry">
            <mxPoint x="280" y="645" as="sourcePoint" />
            <mxPoint x="230" y="635" as="targetPoint" />
          </mxGeometry>
        </mxCell>
        <mxCell id="KUGhsdZ3GMTk7Ok1tHTb-43" value="제품명" style="ellipse;whiteSpace=wrap;html=1;align=center;" vertex="1" parent="1">
          <mxGeometry x="540" y="545" width="100" height="40" as="geometry" />
        </mxCell>
        <mxCell id="KUGhsdZ3GMTk7Ok1tHTb-44" value="" style="endArrow=none;html=1;rounded=0;exitX=0;exitY=0.5;exitDx=0;exitDy=0;entryX=1;entryY=0.5;entryDx=0;entryDy=0;" edge="1" parent="1" source="KUGhsdZ3GMTk7Ok1tHTb-50" target="KUGhsdZ3GMTk7Ok1tHTb-43">
          <mxGeometry relative="1" as="geometry">
            <mxPoint x="744" y="640" as="sourcePoint" />
            <mxPoint x="660" y="620" as="targetPoint" />
          </mxGeometry>
        </mxCell>
        <mxCell id="KUGhsdZ3GMTk7Ok1tHTb-45" value="제품코드" style="ellipse;whiteSpace=wrap;html=1;align=center;fontStyle=4;" vertex="1" parent="1">
          <mxGeometry x="540" y="620" width="100" height="40" as="geometry" />
        </mxCell>
        <mxCell id="KUGhsdZ3GMTk7Ok1tHTb-46" value="" style="endArrow=none;html=1;rounded=0;entryX=1;entryY=0.5;entryDx=0;entryDy=0;exitX=0;exitY=0.5;exitDx=0;exitDy=0;" edge="1" parent="1" target="KUGhsdZ3GMTk7Ok1tHTb-45" source="KUGhsdZ3GMTk7Ok1tHTb-50">
          <mxGeometry relative="1" as="geometry">
            <mxPoint x="740" y="630" as="sourcePoint" />
            <mxPoint x="690" y="620" as="targetPoint" />
          </mxGeometry>
        </mxCell>
        <mxCell id="KUGhsdZ3GMTk7Ok1tHTb-48" value="지역" style="whiteSpace=wrap;html=1;align=center;" vertex="1" parent="1">
          <mxGeometry x="280" y="625" width="100" height="40" as="geometry" />
        </mxCell>
        <mxCell id="KUGhsdZ3GMTk7Ok1tHTb-49" value="" style="endArrow=none;html=1;rounded=0;exitX=0;exitY=0.5;exitDx=0;exitDy=0;entryX=1;entryY=0.5;entryDx=0;entryDy=0;" edge="1" parent="1" source="KUGhsdZ3GMTk7Ok1tHTb-48" target="KUGhsdZ3GMTk7Ok1tHTb-36">
          <mxGeometry relative="1" as="geometry">
            <mxPoint x="584" y="555" as="sourcePoint" />
            <mxPoint x="520" y="525" as="targetPoint" />
          </mxGeometry>
        </mxCell>
        <mxCell id="KUGhsdZ3GMTk7Ok1tHTb-50" value="제품" style="whiteSpace=wrap;html=1;align=center;" vertex="1" parent="1">
          <mxGeometry x="720" y="580" width="100" height="40" as="geometry" />
        </mxCell>
        <mxCell id="KUGhsdZ3GMTk7Ok1tHTb-51" value="제품구분" style="ellipse;whiteSpace=wrap;html=1;align=center;" vertex="1" parent="1">
          <mxGeometry x="890" y="580" width="100" height="40" as="geometry" />
        </mxCell>
        <mxCell id="KUGhsdZ3GMTk7Ok1tHTb-53" value="" style="endArrow=none;html=1;rounded=0;entryX=0;entryY=0.5;entryDx=0;entryDy=0;exitX=1;exitY=0.5;exitDx=0;exitDy=0;" edge="1" parent="1" source="KUGhsdZ3GMTk7Ok1tHTb-50" target="KUGhsdZ3GMTk7Ok1tHTb-51">
          <mxGeometry relative="1" as="geometry">
            <mxPoint x="840" y="645" as="sourcePoint" />
            <mxPoint x="670" y="630" as="targetPoint" />
          </mxGeometry>
        </mxCell>
        <mxCell id="KUGhsdZ3GMTk7Ok1tHTb-54" value="제품색상" style="ellipse;shape=doubleEllipse;margin=3;whiteSpace=wrap;html=1;align=center;" vertex="1" parent="1">
          <mxGeometry x="780" y="690" width="100" height="40" as="geometry" />
        </mxCell>
        <mxCell id="KUGhsdZ3GMTk7Ok1tHTb-55" value="" style="endArrow=none;html=1;rounded=0;entryX=0.5;entryY=0;entryDx=0;entryDy=0;exitX=0.5;exitY=1;exitDx=0;exitDy=0;" edge="1" parent="1" source="KUGhsdZ3GMTk7Ok1tHTb-50" target="KUGhsdZ3GMTk7Ok1tHTb-54">
          <mxGeometry relative="1" as="geometry">
            <mxPoint x="740" y="655" as="sourcePoint" />
            <mxPoint x="690" y="680" as="targetPoint" />
          </mxGeometry>
        </mxCell>
        <mxCell id="KUGhsdZ3GMTk7Ok1tHTb-56" value="제품가격" style="ellipse;whiteSpace=wrap;html=1;align=center;" vertex="1" parent="1">
          <mxGeometry x="660" y="700" width="100" height="40" as="geometry" />
        </mxCell>
        <mxCell id="KUGhsdZ3GMTk7Ok1tHTb-57" value="" style="endArrow=none;html=1;rounded=0;exitX=0.5;exitY=1;exitDx=0;exitDy=0;entryX=0.5;entryY=0;entryDx=0;entryDy=0;" edge="1" parent="1" source="KUGhsdZ3GMTk7Ok1tHTb-50" target="KUGhsdZ3GMTk7Ok1tHTb-56">
          <mxGeometry relative="1" as="geometry">
            <mxPoint x="790" y="635" as="sourcePoint" />
            <mxPoint x="820" y="610" as="targetPoint" />
          </mxGeometry>
        </mxCell>
        <mxCell id="KUGhsdZ3GMTk7Ok1tHTb-58" value="관리" style="shape=rhombus;perimeter=rhombusPerimeter;whiteSpace=wrap;html=1;align=center;" vertex="1" parent="1">
          <mxGeometry x="330" y="480" width="120" height="60" as="geometry" />
        </mxCell>
        <mxCell id="KUGhsdZ3GMTk7Ok1tHTb-59" value="구매" style="shape=rhombus;perimeter=rhombusPerimeter;whiteSpace=wrap;html=1;align=center;" vertex="1" parent="1">
          <mxGeometry x="710" y="400" width="120" height="60" as="geometry" />
        </mxCell>
        <mxCell id="KUGhsdZ3GMTk7Ok1tHTb-67" value="" style="endArrow=none;html=1;rounded=0;exitX=0.5;exitY=0;exitDx=0;exitDy=0;entryX=0.5;entryY=1;entryDx=0;entryDy=0;" edge="1" parent="1" source="KUGhsdZ3GMTk7Ok1tHTb-58" target="KUGhsdZ3GMTk7Ok1tHTb-1">
          <mxGeometry relative="1" as="geometry">
            <mxPoint x="280" y="430" as="sourcePoint" />
            <mxPoint x="370" y="390" as="targetPoint" />
          </mxGeometry>
        </mxCell>
        <mxCell id="KUGhsdZ3GMTk7Ok1tHTb-69" value="N" style="edgeLabel;html=1;align=center;verticalAlign=middle;resizable=0;points=[];" vertex="1" connectable="0" parent="KUGhsdZ3GMTk7Ok1tHTb-67">
          <mxGeometry x="0.0059" y="-1" relative="1" as="geometry">
            <mxPoint x="-21" y="30" as="offset" />
          </mxGeometry>
        </mxCell>
        <mxCell id="KUGhsdZ3GMTk7Ok1tHTb-68" value="" style="endArrow=none;html=1;rounded=0;entryX=0.5;entryY=1;entryDx=0;entryDy=0;exitX=0.5;exitY=0;exitDx=0;exitDy=0;" edge="1" parent="1" source="KUGhsdZ3GMTk7Ok1tHTb-48" target="KUGhsdZ3GMTk7Ok1tHTb-58">
          <mxGeometry relative="1" as="geometry">
            <mxPoint x="330" y="620" as="sourcePoint" />
            <mxPoint x="350" y="550" as="targetPoint" />
          </mxGeometry>
        </mxCell>
        <mxCell id="KUGhsdZ3GMTk7Ok1tHTb-70" value="1" style="edgeLabel;html=1;align=center;verticalAlign=middle;resizable=0;points=[];" vertex="1" connectable="0" parent="KUGhsdZ3GMTk7Ok1tHTb-68">
          <mxGeometry x="0.3654" relative="1" as="geometry">
            <mxPoint x="-1" y="-17" as="offset" />
          </mxGeometry>
        </mxCell>
        <mxCell id="KUGhsdZ3GMTk7Ok1tHTb-71" value="" style="endArrow=none;html=1;rounded=0;exitX=1;exitY=1;exitDx=0;exitDy=0;entryX=0;entryY=0.5;entryDx=0;entryDy=0;" edge="1" parent="1" source="KUGhsdZ3GMTk7Ok1tHTb-1" target="KUGhsdZ3GMTk7Ok1tHTb-59">
          <mxGeometry relative="1" as="geometry">
            <mxPoint x="470" y="390" as="sourcePoint" />
            <mxPoint x="560" y="350" as="targetPoint" />
          </mxGeometry>
        </mxCell>
        <mxCell id="KUGhsdZ3GMTk7Ok1tHTb-79" value="M" style="edgeLabel;html=1;align=center;verticalAlign=middle;resizable=0;points=[];" vertex="1" connectable="0" parent="KUGhsdZ3GMTk7Ok1tHTb-71">
          <mxGeometry x="0.6483" relative="1" as="geometry">
            <mxPoint x="33" y="-5" as="offset" />
          </mxGeometry>
        </mxCell>
        <mxCell id="KUGhsdZ3GMTk7Ok1tHTb-72" value="" style="endArrow=none;html=1;rounded=0;exitX=0.5;exitY=1;exitDx=0;exitDy=0;entryX=0.5;entryY=0;entryDx=0;entryDy=0;" edge="1" parent="1" source="KUGhsdZ3GMTk7Ok1tHTb-59" target="KUGhsdZ3GMTk7Ok1tHTb-50">
          <mxGeometry relative="1" as="geometry">
            <mxPoint x="470" y="410" as="sourcePoint" />
            <mxPoint x="630" y="490" as="targetPoint" />
          </mxGeometry>
        </mxCell>
        <mxCell id="KUGhsdZ3GMTk7Ok1tHTb-80" value="N" style="edgeLabel;html=1;align=center;verticalAlign=middle;resizable=0;points=[];" vertex="1" connectable="0" parent="KUGhsdZ3GMTk7Ok1tHTb-72">
          <mxGeometry x="-0.2114" y="1" relative="1" as="geometry">
            <mxPoint x="-11" y="-27" as="offset" />
          </mxGeometry>
        </mxCell>
        <mxCell id="KUGhsdZ3GMTk7Ok1tHTb-73" value="구매번호" style="ellipse;whiteSpace=wrap;html=1;align=center;fontStyle=4;" vertex="1" parent="1">
          <mxGeometry x="850" y="330" width="100" height="40" as="geometry" />
        </mxCell>
        <mxCell id="KUGhsdZ3GMTk7Ok1tHTb-74" value="수량" style="ellipse;whiteSpace=wrap;html=1;align=center;" vertex="1" parent="1">
          <mxGeometry x="720" y="300" width="100" height="40" as="geometry" />
        </mxCell>
        <mxCell id="KUGhsdZ3GMTk7Ok1tHTb-75" value="구매일자" style="ellipse;whiteSpace=wrap;html=1;align=center;" vertex="1" parent="1">
          <mxGeometry x="920" y="410" width="100" height="40" as="geometry" />
        </mxCell>
        <mxCell id="KUGhsdZ3GMTk7Ok1tHTb-76" value="" style="endArrow=none;html=1;rounded=0;entryX=0.5;entryY=1;entryDx=0;entryDy=0;exitX=0.5;exitY=0;exitDx=0;exitDy=0;" edge="1" parent="1" source="KUGhsdZ3GMTk7Ok1tHTb-59" target="KUGhsdZ3GMTk7Ok1tHTb-74">
          <mxGeometry relative="1" as="geometry">
            <mxPoint x="740" y="410" as="sourcePoint" />
            <mxPoint x="810" y="325" as="targetPoint" />
          </mxGeometry>
        </mxCell>
        <mxCell id="KUGhsdZ3GMTk7Ok1tHTb-77" value="" style="endArrow=none;html=1;rounded=0;entryX=0;entryY=0.5;entryDx=0;entryDy=0;exitX=1;exitY=0;exitDx=0;exitDy=0;" edge="1" parent="1" source="KUGhsdZ3GMTk7Ok1tHTb-59" target="KUGhsdZ3GMTk7Ok1tHTb-73">
          <mxGeometry relative="1" as="geometry">
            <mxPoint x="750" y="420" as="sourcePoint" />
            <mxPoint x="847" y="380" as="targetPoint" />
          </mxGeometry>
        </mxCell>
        <mxCell id="KUGhsdZ3GMTk7Ok1tHTb-78" value="" style="endArrow=none;html=1;rounded=0;entryX=0;entryY=0.5;entryDx=0;entryDy=0;exitX=1;exitY=0.5;exitDx=0;exitDy=0;" edge="1" parent="1" source="KUGhsdZ3GMTk7Ok1tHTb-59" target="KUGhsdZ3GMTk7Ok1tHTb-75">
          <mxGeometry relative="1" as="geometry">
            <mxPoint x="780" y="435" as="sourcePoint" />
            <mxPoint x="850" y="410" as="targetPoint" />
          </mxGeometry>
        </mxCell>
      </root>
    </mxGraphModel>
  </diagram>
</mxfile>
